<svg xmlns="http://www.w3.org/2000/svg" width="30.262" height="30.258" viewBox="0 0 30.262 30.258">
  <path id="Path_494" data-name="Path 494" d="M15.131,0A15.129,15.129,0,1,0,30.262,15.13,15.13,15.13,0,0,0,15.131,0ZM12.859,24.148a.868.868,0,0,1-1.223,0l-.271-.271h0l-.3-.293L9.8,22.318l-.02-.029L3.977,16.438a.861.861,0,0,1,0-1.22l1.83-1.83a.86.86,0,0,1,1.221,0l5.225,5.262L23.233,7.668a.861.861,0,0,1,1.219,0L26.282,9.5a.862.862,0,0,1,0,1.221Z" transform="translate(0 -0.002)" fill="#fff"/>
</svg>
