<svg width="26" height="26" viewBox="0 0 26 26" fill="none" xmlns="http://www.w3.org/2000/svg">
<g clip-path="url(#clip0_11_183)">
<path d="M5.76215 15.7121L4.85713 19.0907L1.54929 19.1607C0.560727 17.3271 0 15.2293 0 13C0 10.8443 0.524266 8.81141 1.45356 7.02142H1.45427L4.39918 7.56133L5.68923 10.4886C5.41922 11.2757 5.27206 12.1207 5.27206 13C5.27216 13.9543 5.44502 14.8686 5.76215 15.7121Z" fill="#FBBB00"/>
<path d="M25.7728 10.5714C25.9221 11.3578 26 12.17 26 13C26 13.9307 25.9021 14.8386 25.7157 15.7143C25.0829 18.6943 23.4293 21.2964 21.1386 23.1379L21.1379 23.1372L17.4286 22.9479L16.9036 19.6707C18.4236 18.7793 19.6115 17.3843 20.2372 15.7143H13.2858V10.5714H20.3386H25.7728Z" fill="#518EF8"/>
<path d="M21.1379 23.1372L21.1386 23.1379C18.9108 24.9286 16.0807 26 13 26C8.04932 26 3.74505 23.2329 1.54932 19.1607L5.76218 15.7122C6.86002 18.6421 9.68645 20.7279 13 20.7279C14.4243 20.7279 15.7586 20.3429 16.9036 19.6707L21.1379 23.1372Z" fill="#28B446"/>
<path d="M21.2979 2.99284L17.0865 6.44069C15.9015 5.69999 14.5007 5.27211 13.0001 5.27211C9.61147 5.27211 6.73217 7.45352 5.68933 10.4886L1.45432 7.02142H1.45361C3.6172 2.85 7.97575 0 13.0001 0C16.1543 0 19.0465 1.12359 21.2979 2.99284Z" fill="#F14336"/>
</g>
<defs>
<clipPath id="clip0_11_183">
<rect width="26" height="26" fill="white"/>
</clipPath>
</defs>
</svg>
